<svg width="66" height="40" viewBox="0 0 66 40" fill="none" xmlns="http://www.w3.org/2000/svg">
<path d="M13.0547 28.4125C12.5583 28.4125 12.0918 28.1602 11.8198 27.7363C11.5206 27.2699 11.5103 26.6744 11.7934 26.197L21.0921 10.519C21.3238 10.1281 21.7228 9.86708 22.173 9.81135L42.4088 7.3026C42.969 7.2344 43.5132 7.48887 43.819 7.95894C44.1248 8.42974 44.1358 9.03327 43.8461 9.51434L34.158 25.6353C33.9211 26.0306 33.5112 26.2909 33.0528 26.3386L13.2073 28.4044C13.1559 28.4095 13.1053 28.4125 13.0547 28.4125ZM23.2481 12.6347L15.8047 25.185L32.021 23.4969L39.7805 10.585L23.2481 12.6347Z" fill="#0D8A48"/>
<path d="M13.0556 39.9992C5.85643 39.9992 0 34.1428 0 26.9443C0 19.7459 5.85643 13.8895 13.0556 13.8895C15.4045 13.8895 17.7079 14.5209 19.7172 15.7147C20.4132 16.1283 20.6427 17.0289 20.2284 17.7248C19.8148 18.4208 18.9157 18.6503 18.2183 18.236C16.6622 17.3112 14.8772 16.8221 13.0556 16.8221C7.47418 16.8221 2.93335 21.3629 2.93335 26.9443C2.93335 32.5258 7.47418 37.0666 13.0556 37.0666C18.6363 37.0666 23.1771 32.5265 23.1771 26.9443C23.1771 26.5938 23.1595 26.2411 23.1236 25.8942C23.0415 25.0883 23.6274 24.3681 24.4333 24.286C25.2407 24.1936 25.9594 24.7898 26.0423 25.595C26.0878 26.0409 26.1112 26.4948 26.1112 26.9443C26.1105 34.1428 20.2541 39.9992 13.0556 39.9992Z" fill="#0D8A48"/>
<path d="M52.9462 28.4118C52.4321 28.4118 51.9327 28.1412 51.6643 27.6602L38.2105 3.56049L35.1055 5.60723C34.4287 6.0531 33.5193 5.8661 33.0735 5.18997C32.6276 4.51383 32.8146 3.60376 33.4907 3.15789L37.9142 0.242137C38.2538 0.0177356 38.6703 -0.054864 39.0692 0.0419366C39.4652 0.138737 39.8033 0.395406 40.0013 0.751808L54.2244 26.2302C54.6197 26.9371 54.3659 27.831 53.659 28.2256C53.4331 28.3524 53.1882 28.4118 52.9462 28.4118Z" fill="#0D8A48"/>
<path d="M32.9026 26.3445C32.4626 26.3445 32.0284 26.1473 31.7395 25.7725L16.5726 6.07435C16.0783 5.43268 16.1979 4.51161 16.8395 4.01734C17.4812 3.52307 18.403 3.64333 18.8965 4.285L34.0634 23.9839C34.5577 24.6256 34.4382 25.5467 33.7958 26.0409C33.5296 26.2455 33.2142 26.3445 32.9026 26.3445Z" fill="#0D8A48"/>
<path d="M22.4159 6.64804H13.0555C12.2459 6.64804 11.5889 5.99097 11.5889 5.18137C11.5889 4.37176 12.2459 3.71469 13.0555 3.71469H22.4166C23.2262 3.71469 23.8833 4.37176 23.8833 5.18137C23.8833 5.99097 23.2262 6.64804 22.4159 6.64804Z" fill="#0D8A48"/>
<path d="M52.9448 40C45.7463 40 39.8892 34.1435 39.8892 26.9443C39.8892 19.7452 45.7456 13.8895 52.9448 13.8895C60.1439 13.8895 66.0004 19.7459 66.0004 26.9451C66.0004 34.1443 60.1439 40 52.9448 40ZM52.9448 16.8228C47.3633 16.8228 42.8225 21.3636 42.8225 26.9443C42.8225 32.5258 47.3626 37.0666 52.9448 37.0666C58.5269 37.0666 63.067 32.5265 63.067 26.9451C63.067 21.3636 58.5269 16.8228 52.9448 16.8228Z" fill="#0D8A48"/>
</svg>
