<svg width="24" height="25" viewBox="0 0 24 25" fill="none" xmlns="http://www.w3.org/2000/svg">
<path d="M12 3.61108C9.58368 3.61108 7.625 5.56976 7.625 7.98608C7.625 9.93956 10.4844 13.5 11.5799 14.7923C11.8017 15.0541 12.1986 15.0541 12.4201 14.7923C13.5156 13.5 16.375 9.93956 16.375 7.98608C16.375 5.56976 14.4163 3.61108 12 3.61108ZM2.69861 11.1093C2.49242 11.1918 2.31567 11.3342 2.19115 11.518C2.06663 11.7019 2.00005 11.9189 2 12.1409V20.8326C2 21.2257 2.39688 21.4944 2.76181 21.3486L7.55556 19.1666V11.0736C7.24861 10.5187 6.99757 9.97845 6.81771 9.46178L2.69861 11.1093ZM12 16.0996C11.5115 16.0996 11.0493 15.885 10.7323 15.5107C10.0497 14.7052 9.32361 13.7878 8.66667 12.8468V19.1663L15.3333 21.3885V12.8472C14.6764 13.7878 13.9507 14.7055 13.2677 15.5111C12.9507 15.885 12.4885 16.0996 12 16.0996ZM21.2382 9.20692L16.4444 11.3889V21.3889L21.3014 19.4462C21.5076 19.3637 21.6844 19.2214 21.8089 19.0375C21.9334 18.8536 22 18.6366 22 18.4146V9.72289C22 9.32983 21.6031 9.06108 21.2382 9.20692Z" fill="#EDFFEB"/>
</svg>
