<svg width="57" height="57" viewBox="0 0 57 57" fill="none" xmlns="http://www.w3.org/2000/svg">
<g clip-path="url(#clip0_122_43)">
<path d="M43.1775 23.75L39.14 12.635C38.4512 10.7588 36.67 9.5 34.675 9.5H28.5V14.25H34.675L38.1425 23.75H26.7188L25.8638 21.375H28.5V16.625H16.625V21.375H20.7812L25.1037 33.25H23.5125C22.4675 27.9537 18.0262 24.035 12.4688 23.7738C5.81875 23.4413 0 28.975 0 35.625C0 42.275 5.225 47.5 11.875 47.5C17.7175 47.5 22.4437 43.4862 23.5125 38H33.4875C34.5325 43.2963 38.9738 47.215 44.5312 47.4762C51.1812 47.785 57 42.275 57 35.6012C57 28.9512 51.775 23.7262 45.125 23.7262H43.1775V23.75ZM18.5725 38C17.6225 40.7787 15.0338 42.75 11.875 42.75C7.885 42.75 4.75 39.615 4.75 35.625C4.75 31.635 7.885 28.5 11.875 28.5C15.0338 28.5 17.6225 30.4713 18.5725 33.25H11.875V38H18.5725ZM33.4875 33.25H30.1625L28.4288 28.5H35.625C34.58 29.8775 33.82 31.4688 33.4875 33.25ZM45.125 42.75C41.135 42.75 38 39.615 38 35.625C38 33.4162 38.9737 31.5163 40.4937 30.21L42.7738 36.48L47.2387 34.865L44.935 28.5238C45.0063 28.5238 45.0775 28.5 45.1488 28.5C49.1388 28.5 52.2738 31.635 52.2738 35.625C52.2738 39.615 49.115 42.75 45.125 42.75Z" fill="#80E273"/>
</g>
<defs>
<clipPath id="clip0_122_43">
<rect width="57" height="57" fill="white"/>
</clipPath>
</defs>
</svg>
