<svg width="32" height="32" viewBox="0 0 32 32" fill="none" xmlns="http://www.w3.org/2000/svg">
<path d="M14.9723 28.7953C7.40469 17.8245 6 16.6986 6 12.6667C6 7.14381 10.4771 2.66667 16 2.66667C21.5229 2.66667 26 7.14381 26 12.6667C26 16.6986 24.5953 17.8245 17.0277 28.7953C16.5311 29.5127 15.4689 29.5127 14.9723 28.7953ZM16 16.8333C18.3012 16.8333 20.1667 14.9679 20.1667 12.6667C20.1667 10.3655 18.3012 8.5 16 8.5C13.6988 8.5 11.8333 10.3655 11.8333 12.6667C11.8333 14.9679 13.6988 16.8333 16 16.8333Z" fill="#0D8A48"/>
</svg>
