<svg width="17" height="15" viewBox="0 0 17 15" fill="none" xmlns="http://www.w3.org/2000/svg">
<path d="M4.29883 0.921875C5.28607 0.921875 6.10448 1.63751 6.26758 2.57812H11.9277L12.1855 2.58496C14.8297 2.71922 16.9324 4.90558 16.9326 7.58301L16.9268 7.84082C16.797 10.3997 14.7444 12.4511 12.1855 12.5811L11.9277 12.5879H6.26758C6.10482 13.5289 5.28636 14.2451 4.29883 14.2451H2.50293C1.39856 14.2449 0.502973 13.3495 0.50293 12.2451V2.92188C0.50293 1.81743 1.39853 0.922073 2.50293 0.921875H4.29883ZM2.50293 9.1875V12.2451H4.29883V9.1875H2.50293ZM6.2998 10.5879H11.9277C13.5871 10.5877 14.9326 9.24247 14.9326 7.58301C14.9324 5.92374 13.587 4.57832 11.9277 4.57812H6.2998V10.5879ZM2.50293 4.93262H4.29883V2.92188H2.50293V4.93262Z" fill="#80E273"/>
</svg>
