<svg width="24" height="25" viewBox="0 0 24 25" fill="none" xmlns="http://www.w3.org/2000/svg">
<path d="M12 12.5C14.7617 12.5 17 10.2617 17 7.5C17 4.73828 14.7617 2.5 12 2.5C9.23828 2.5 7 4.73828 7 7.5C7 10.2617 9.23828 12.5 12 12.5ZM15.5 13.75H14.8477C13.9805 14.1484 13.0156 14.375 12 14.375C10.9844 14.375 10.0234 14.1484 9.15234 13.75H8.5C5.60156 13.75 3.25 16.1016 3.25 19V20.625C3.25 21.6602 4.08984 22.5 5.125 22.5H18.875C19.9102 22.5 20.75 21.6602 20.75 20.625V19C20.75 16.1016 18.3984 13.75 15.5 13.75Z" fill="#444444"/>
</svg>
